<?xml version="1.0" standalone="no"?><!DOCTYPE svg PUBLIC "-//W3C//DTD SVG 1.1//EN" "http://www.w3.org/Graphics/SVG/1.1/DTD/svg11.dtd"><svg t="1657856252967" class="icon" viewBox="0 0 1024 1024" version="1.1" xmlns="http://www.w3.org/2000/svg" p-id="1382" xmlns:xlink="http://www.w3.org/1999/xlink" width="200" height="200"><defs><style type="text/css">@font-face { font-family: feedback-iconfont; src: url("//at.alicdn.com/t/font_1031158_u69w8yhxdu.woff2?t=1630033759944") format("woff2"), url("//at.alicdn.com/t/font_1031158_u69w8yhxdu.woff?t=1630033759944") format("woff"), url("//at.alicdn.com/t/font_1031158_u69w8yhxdu.ttf?t=1630033759944") format("truetype"); }
</style></defs><path d="M768 576 448 576 448 448l192 0c35.392 0 64-28.608 64-64L704 256c0-35.392-28.608-64-64-64L448 192 448 96C448 78.336 433.664 64 416 64S384 78.336 384 96L384 192 192 192C156.608 192 128 220.608 128 256l0 128c0 35.392 28.608 64 64 64l192 0 0 128L64 576c-35.392 0-64 28.608-64 64l0 192c0 35.392 28.608 64 64 64l320 0 0 96C384 1009.6 398.336 1024 416 1024S448 1009.6 448 992L448 896l320 0c35.392 0 64-28.608 64-64l0-192C832 604.608 803.392 576 768 576zM64 832l0-192 320 0 0 192L64 832zM768 832 448 832l0-192 320 0L768 832z" p-id="1383"></path></svg>