<?xml version="1.0" standalone="no"?><!DOCTYPE svg PUBLIC "-//W3C//DTD SVG 1.1//EN" "http://www.w3.org/Graphics/SVG/1.1/DTD/svg11.dtd"><svg t="1657856248011" class="icon" viewBox="0 0 1024 1024" version="1.1" xmlns="http://www.w3.org/2000/svg" p-id="1242" xmlns:xlink="http://www.w3.org/1999/xlink" width="200" height="200"><defs><style type="text/css">@font-face { font-family: feedback-iconfont; src: url("//at.alicdn.com/t/font_1031158_u69w8yhxdu.woff2?t=1630033759944") format("woff2"), url("//at.alicdn.com/t/font_1031158_u69w8yhxdu.woff?t=1630033759944") format("woff"), url("//at.alicdn.com/t/font_1031158_u69w8yhxdu.ttf?t=1630033759944") format("truetype"); }
</style></defs><path d="M928 512 832 512 832 320c0-35.392-28.608-64-64-64l-128 0C604.608 256 576 284.608 576 320l0 192L512 512 512 192c0-35.392-28.608-64-64-64L256 128C220.608 128 192 156.608 192 192l0 320L96 512C78.336 512 64 526.336 64 544S78.336 576 96 576L192 576l0 320c0 35.392 28.608 64 64 64l192 0c35.392 0 64-28.608 64-64L512 576l64 0 0 192c0 35.392 28.608 64 64 64l128 0c35.392 0 64-28.608 64-64L832 576l96 0C945.664 576 960 561.664 960 544S945.664 512 928 512zM256 192l192 0 0 320L256 512 256 192zM448 896 256 896 256 576l192 0L448 896z" p-id="1243"></path></svg>