<svg width="580" height="400" xmlns="http://www.w3.org/2000/svg">
 <g>
  <rect fill="#fff" id="canvas_background" height="402" width="582" y="-1" x="-1"/>
  <g display="none" overflow="visible" y="0" x="0" height="100%" width="100%" id="canvasGrid">
   <rect fill="url(#gridpattern)" stroke-width="20" y="0" x="0" height="100%" width="100%"/>
  </g>
 </g>
 <g>
  <path stroke="#000" id="svg_1" d="m33.036151,51.789024l0,0c0,20.254643 57.04968,36.674287 127.424029,36.674287c70.374315,0 127.423978,-16.419645 127.423978,-36.674287l0,0c0,-20.254655 57.049697,-36.674287 127.424047,-36.674287c70.374349,0 127.423978,16.419645 127.423978,36.674287l0,293.3943c0,-20.254643 -57.049646,-36.674312 -127.423978,-36.674312c-70.374349,0 -127.424047,16.419657 -127.424047,36.674312c0,20.254631 -57.049663,36.674275 -127.423978,36.674275c-70.374349,0 -127.424029,-16.419645 -127.424029,-36.674275l0,-293.3943z" stroke-width="20" fill="#fff"/>
 </g>
</svg>