<?xml version="1.0" standalone="no"?><!DOCTYPE svg PUBLIC "-//W3C//DTD SVG 1.1//EN" "http://www.w3.org/Graphics/SVG/1.1/DTD/svg11.dtd">
<svg
  t="1656989181931"
  class="icon"
  viewBox="0 0 1024 1024"
  version="1.1"
  xmlns="http://www.w3.org/2000/svg"
  p-id="1091"
  xmlns:xlink="http://www.w3.org/1999/xlink"
  width="200"
  height="200"
>
  <defs>
    <style type="text/css">
      @font-face {
        font-family: feedback-iconfont;
        src: url("//at.alicdn.com/t/font_1031158_u69w8yhxdu.woff2?t=1630033759944")
            format("woff2"),
          url("//at.alicdn.com/t/font_1031158_u69w8yhxdu.woff?t=1630033759944")
            format("woff"),
          url("//at.alicdn.com/t/font_1031158_u69w8yhxdu.ttf?t=1630033759944")
            format("truetype");
      }
    </style>
  </defs>
  <path
    d="M709.71 143.669H314.29c-50.948 0-97.123 29.986-117.846 76.528l-70.402 158.116c-20.254 45.487-12.52 98.57 19.871 136.388l304.568 355.591a81 81 0 0 0 8.827 8.828c33.976 29.1 85.11 25.148 114.211-8.828l304.568-355.591c32.39-37.818 40.125-90.9 19.871-136.388l-70.402-158.116c-20.723-46.542-66.898-76.528-117.846-76.528z m-395.42 60h395.42c27.251 0 51.95 16.039 63.034 40.934l70.402 158.115a69 69 0 0 1-10.629 72.952L527.949 831.26c-7.544 8.809-20.801 9.834-29.61 2.289a21 21 0 0 1-2.288-2.289L191.483 475.67a69 69 0 0 1-10.629-72.952l70.402-158.115c11.084-24.895 35.783-40.934 63.034-40.934z"
    fill="#4633FF"
    p-id="1092"
  ></path>
  <path
    d="M683.643 447.483c10.778-12.583 29.717-14.047 42.3-3.27 12.458 10.671 14.018 29.34 3.59 41.922l-0.32 0.379-155.694 181.778c-29.1 33.976-80.235 37.928-114.21 8.828a81 81 0 0 1-8.828-8.828L294.786 486.514c-10.778-12.584-9.314-31.522 3.27-42.3 12.583-10.778 31.522-9.315 42.3 3.27L496.05 629.26a21 21 0 0 0 2.288 2.289c8.712 7.462 21.775 6.541 29.36-2.001l0.25-0.288 155.694-181.778z"
    fill="#48EBE9"
    p-id="1093"
  ></path>
</svg>
