<?xml version="1.0" standalone="no"?><!DOCTYPE svg PUBLIC "-//W3C//DTD SVG 1.1//EN" "http://www.w3.org/Graphics/SVG/1.1/DTD/svg11.dtd">
<svg
  t="1656999384157"
  class="icon"
  viewBox="0 0 1024 1024"
  version="1.1"
  xmlns="http://www.w3.org/2000/svg"
  p-id="5935"
  xmlns:xlink="http://www.w3.org/1999/xlink"
  width="200"
  height="200"
>
  <defs>
    <style type="text/css">
      @font-face {
        font-family: feedback-iconfont;
        src: url("//at.alicdn.com/t/font_1031158_u69w8yhxdu.woff2?t=1630033759944")
            format("woff2"),
          url("//at.alicdn.com/t/font_1031158_u69w8yhxdu.woff?t=1630033759944")
            format("woff"),
          url("//at.alicdn.com/t/font_1031158_u69w8yhxdu.ttf?t=1630033759944")
            format("truetype");
      }
    </style>
  </defs>
  <path
    d="M657.066667 601.6s-2.133333-4.266667-4.266667-4.266667h-2.133333c-4.266667 0-8.533333 2.133333-6.4 6.4l6.4 12.8c6.4-2.133333 8.533333-8.533333 6.4-14.933333 2.133333 2.133333 0 2.133333 0 0z m151.466666-228.266667C793.6 258.133333 695.466667 170.666667 576 170.666667c-100.266667 0-185.6 61.866667-219.733333 149.333333H341.333333c-70.4 0-130.133333 49.066667-145.066666 115.2C106.666667 460.8 42.666667 544 42.666667 640c0 117.333333 96 213.333333 213.333333 213.333333h490.666667c130.133333-6.4 234.666667-113.066667 234.666666-245.333333 0-110.933333-72.533333-202.666667-172.8-234.666667zM514.133333 426.666667c102.4 0 185.6 27.733333 185.6 59.733333s-83.2 59.733333-185.6 59.733333c-102.4 0-185.6-27.733333-185.6-59.733333s83.2-59.733333 185.6-59.733333z m-185.6 113.066666c0-6.4 6.4-6.4 10.666667-4.266666 25.6 23.466667 93.866667 40.533333 177.066667 40.533333 25.6 0 49.066667 0 72.533333-4.266667-6.4 21.333333 4.266667 38.4 6.4 42.666667v4.266667s2.133333 0 2.133333 2.133333v4.266667c2.133333 8.533333 2.133333 14.933333 6.4 21.333333v4.266667c-25.6 6.4-55.466667 6.4-87.466666 6.4-104.533333 0-187.733333-27.733333-187.733334-59.733334v-57.6zM514.133333 768c-102.4 0-185.6-27.733333-185.6-59.733333v-57.6c0-6.4 6.4-6.4 10.666667-4.266667 23.466667 23.466667 93.866667 40.533333 177.066667 40.533333 29.866667 0 59.733333-2.133333 83.2-6.4 0 8.533333 2.133333 19.2 6.4 27.733334v2.133333c10.666667 25.6 32 27.733333 38.4 27.733333h4.266666l8.533334 8.533334c-36.266667 12.8-87.466667 21.333333-142.933334 21.333333z m247.466667 0c-6.4-2.133333-14.933333-4.266667-21.333333-8.533333-8.533333-2.133333-23.466667-10.666667-23.466667-10.666667-38.4-19.2-36.266667-19.2-40.533333-23.466667-2.133333-4.266667-6.4-6.4-8.533334-8.533333-6.4-6.4-10.666667-10.666667-12.8-17.066667 0-4.266667-2.133333-8.533333-4.266666-10.666666v2.133333c-2.133333 6.4-2.133333 12.8-6.4 14.933333-6.4 2.133333-10.666667-6.4-10.666667-8.533333-4.266667-14.933333-4.266667-29.866667 0-42.666667 0-4.266667 2.133333-6.4 2.133333-8.533333 0 0 0-2.133333-2.133333-4.266667 0-2.133333-2.133333-4.266667-4.266667-6.4-2.133333-6.4-2.133333-10.666667-4.266666-17.066666 0-2.133333 0-4.266667-2.133334-6.4 0-4.266667-2.133333-6.4-4.266666-10.666667s-10.666667-12.8-6.4-21.333333c0-4.266667 6.4-6.4 8.533333-6.4 6.4 2.133333 12.8 6.4 19.2 10.666666l4.266667 4.266667h8.533333c6.4 0 10.666667 2.133333 14.933333 6.4 17.066667 12.8 32 29.866667 38.4 49.066667 2.133333 6.4 4.266667 10.666667 4.266667 14.933333 2.133333 8.533333 6.4 14.933333 6.4 21.333333 0 4.266667 2.133333 6.4 4.266667 10.666667 0 2.133333 4.266667 2.133333 4.266666 4.266667 2.133333 2.133333 6.4 4.266667 10.666667 6.4l17.066667 17.066666c2.133333 2.133333 4.266667 6.4 6.4 8.533334h-17.066667c-2.133333 2.133333-4.266667 2.133333-8.533333 2.133333 2.133333 4.266667 8.533333 8.533333 12.8 10.666667 4.266667 4.266667 6.4 8.533333 10.666666 12.8l2.133334 4.266666c4.266667 6.4 4.266667 10.666667 2.133333 10.666667z"
    p-id="5936"
  ></path>
</svg>
